PathFileType	4	(X/Y/Z)	C:/Users/beibeiliu/ov580/test_trc/User1\sequence.23_training_dense_left.trc
DataRate	CameraRate	NumFrames	NumMarkers	Units	OrigDataRate	OrigDataStartFrame	OrigNumFrames
120	120	14	19	mm	120	27	79
Frame#	Time	ThumbCMC			ThumbMCP			ThumbIP			ThumbTip			IndexMCP			IndexPIP			IndexTip			MiddleMCP			MiddlePIP			MiddleTip			RingMCP			RingPIP			RingTip			PinkyMCP			PinkyPIP			PinkyTip			BackHand1			BackHand2			BackHand3	
		X0	Y0	Z0	X1	Y1	Z1	X2	Y2	Z2	X3	Y3	Z3	X4	Y4	Z4	X5	Y5	Z5	X6	Y6	Z6	X7	Y7	Z7	X8	Y8	Z8	X9	Y9	Z9	X10	Y10	Z10	X11	Y11	Z11	X12	Y12	Z12	X13	Y13	Z13	X14	Y14	Z14	X15	Y15	Z15	X16	Y16	Z16	X17	Y17	Z17	X18	Y18	Z18	
26	0.216667	-141.41	32.4594	110.022	-116.941	30.2346	84.2072	-110.955	29.0338	57.1662	-106.5	20.0784	33.688	-160.748	55.321	30.4397	-158.377	46.2465	-0.495338	-144.172	27.1541	-17.816	-189.194	40.9638	17.8285	-176.615	36.8311	-10.0986	-161.185	16.9717	-32.3782	-201.393	25.5629	20.9359	-193.077	17.8628	-9.23616	-176.619	1.90776	-28.7266	-215.78	-2.09505	37.2612	-208.108	-5.80146	11.2228	-197.246	-11.5968	-11.0594	-210.91	20.3282	80.9539	-213.05	14.6853	118.408	-182.73	40.3065	102.313	
27	0.225	-145.368	33.7203	110.524	-115.984	28.8437	89.1272	-104.28	30.0421	58.9151	-95.6495	20.6161	35.5295	-165.583	62.2238	34.269	-157.412	62.5871	0.639652	-149.83	42.3583	-20.1355	-188.91	55.43	20.7125	-184.698	49.7339	-10.964	-164.504	31.4153	-36.2526	-207.436	34.833	24.4732	-198.783	30.4938	-9.29974	-187.037	17.1975	-27.6474	-220.58	7.24084	37.3595	-214.731	6.12409	14.6814	-201.012	-0.736633	-10.8477	-208.32	28.9934	84.1997	-213.595	19.6794	117.41	-184.867	45.5847	100.925	
28	0.233333	-142.839	41.8827	110.198	-122.24	28.204	90.9429	-105.577	25.8194	66.3114	-95.0815	16.8972	45.2233	-163.046	79.7336	37.3638	-159.334	81.8232	7.78307	-148.145	64.7454	-21.411	-188.643	74.4766	30.197	-184.403	76.5555	-6.904	-174.654	58.7745	-31.04	-207.145	57.4907	25.8305	-200.625	58.9438	-6.04077	-189.938	45.6007	-26.7804	-221.587	29.5931	37.1997	-219.97	24.8639	9.98448	-207	20.0123	-14.3298	-214.427	45.2383	81.4961	-215.752	35.3825	119.084	-185.834	57.8458	105.977	
29	0.241667	-146.109	43.1369	114.687	-125.959	29.1961	90.1544	-104.753	23.5012	72.1029	-94.3107	12.7452	49.5552	-161.591	90.8943	46.1137	-154.143	99.6863	15.6604	-142.293	86.8074	-13.0596	-191.145	91.4996	34.4746	-184.639	96.652	1.06415	-171.15	79.5523	-29.3937	-206.327	76.5832	32.6093	-201.717	80.6855	0.646335	-194.16	67.1778	-23.4682	-221.735	48.9488	38.4896	-221.267	47.8602	10.171	-206.687	42.4052	-12.8206	-210.724	58.4063	88.5938	-216.244	47.5142	117.547	-183.886	66.8688	109.883	
30	0.25	-149.903	47.1838	112.988	-124.456	31.0792	91.9856	-112.788	24.2226	72.2285	-99.198	15.681	49.4271	-154.159	102.958	51.4197	-152.813	109.998	24.3685	-141.991	98.8743	-8.32459	-188.075	100.766	43.1237	-182.7	110.625	7.87078	-172.338	94.9985	-20.4587	-205.38	90.9308	36.9986	-201.25	94.7928	4.00065	-186.345	82.7315	-18.4794	-223.063	62.5333	38.9595	-221.337	63.5159	14.9531	-204.483	58.5625	-13.1533	-215.622	69.2439	87.8957	-220.308	54.322	119.84	-185.708	72.7026	112.008	
31	0.258333	-150.222	53.8256	120.178	-122.827	39.6463	98.5408	-110.239	37.0492	78.255	-91.7662	29.2214	58.4867	-158.521	109.45	54.8188	-150.266	118.987	29.5106	-138.656	110.206	-0.00405025	-185.664	109.771	43.1087	-178.087	116.473	11.0021	-162.775	102.345	-18.0222	-205.49	91.5451	39.2271	-197.041	99.7081	10.3129	-181.553	86.9605	-15.4986	-221.054	63.7711	41.9852	-215.88	67.4402	13.0574	-199.104	65.3195	-6.76154	-214.716	71.8272	90.307	-219.274	56.3596	121.5	-183.16	77.9309	114.762	
32	0.266667	-155.383	73.6576	123.925	-125.526	68.4224	107.419	-104.955	70.2081	88.6183	-90.243	66.8241	67.7425	-169.955	112.802	54.8613	-164.173	119.182	22.2177	-147.462	110.447	-3.06237	-194.236	99.4724	37.5056	-185.187	106.941	4.44148	-159.222	95.3443	-18.1317	-202.797	81.6324	33.9519	-194.006	85.4121	3.65213	-171.058	75.5981	-14.9625	-209.842	48.7267	36.6982	-197.643	54.8078	13.4979	-175.337	54.1193	-5.98983	-216.572	63.0601	84.1112	-220.384	51.0448	117.857	-197.354	78.4518	110.723	
33	0.275	-176.699	98.5459	120.866	-144.997	108.133	106.082	-124.679	116.25	85.2148	-107.322	115.555	71.7391	-189.533	98.2656	36.9032	-179.714	99.5028	6.38421	-153.641	98.5049	-11.6699	-196.539	77.7413	22.0589	-183.068	79.28	-7.12763	-152.074	79.5096	-21.3913	-192.478	56.5058	23.9946	-177.724	57.7654	-1.93772	-146.844	58.6967	-13.0858	-182.492	27.7688	35.215	-168.097	34.1513	16.9137	-147.998	39.8316	-0.0603792	-209.105	47.3991	78.933	-216.226	40.0634	109.205	-211.293	74.4761	99.0173	
34	0.283333	-203.86	96.7771	105.765	-179.572	122.253	95.1091	-162.991	133.602	77.0027	-142.515	140.608	61.115	-196.477	75.9442	25.1317	-177.789	74.5858	-5.82604	-154.972	80.0822	-17.2297	-187.51	50.422	14.5101	-166.263	53.421	-12.2013	-134.534	69.5004	-20.3805	-172.647	32.4148	25.7977	-153.458	41.3703	-1.56503	-124.622	54.587	-5.53001	-154.417	19.663	49.8733	-136.888	27.5653	26.2434	-119.706	44.6467	12.7902	-196.121	30.954	77.8234	-205.723	26.2363	112.079	-214.933	55.3823	88.8083	
35	0.291667	-218.825	88.5406	99.046	-200.236	116.224	82.8001	-187.021	130.264	67.8398	-168.709	144.24	54.1525	-200.299	61.4534	17.9713	-182.209	65.1691	-11.8131	-159.064	74.908	-21.3067	-179.102	35.4681	13.8908	-160.734	45.9404	-12.6825	-134.761	68.3486	-20.536	-161.782	26.1916	26.848	-141.348	37.6966	0.729758	-121.641	58.0773	-1.74226	-141.12	20.9824	48.7582	-124.147	32.376	31.4039	-110.044	50.2137	21.4133	-188.656	20.73	75.5835	-200.394	17.3144	109.341	-215.696	44.193	86.58	
36	0.3	-226.783	82.6615	95.8412	-209.808	110.098	79.8162	-198.707	126.48	64.5583	-185.146	147.597	50.0224	-203.175	54.4987	16.4662	-189.071	56.5356	-9.48769	-164.92	71.5543	-23.5592	-185.677	33.8468	13.491	-169.018	43.0216	-14.2837	-140.369	65.6612	-20.1824	-165.837	25.1446	26.2909	-147.908	35.6175	1.13237	-126.344	63.9317	-4.05771	-145.131	23.6873	45.5949	-130.279	35.1333	29.4996	-114.622	57.5263	18.8324	-189.234	16.9854	77.6782	-202.077	13.937	106.475	-219.533	38.2578	84.2636	
37	0.308333	-228.757	81.6485	93.7089	-212.06	109.646	77.7619	-200.953	125.467	64.1803	-187.001	144.985	49.2156	-213.069	55.026	10.8519	-199.301	58.9589	-14.9181	-177.572	75.124	-28.3913	-196.757	33.7159	11.87	-179.421	42.9585	-17.7769	-152.112	65.0692	-23.1998	-177.468	22.662	21.1313	-159.991	37.658	-7.19649	-134.583	59.375	-8.35669	-158.507	17.4574	44.021	-141.29	28.6999	23.6709	-132.336	51.3216	10.2107	-202.945	18.8205	75.2065	-208.587	10.3114	105.297	-230.635	40.7613	80.5872	
38	0.316667	-222.307	88.0898	99.9085	-198.751	114.948	87.305	-184.769	129.302	68.9798	-166.693	137.186	55.4243	-224.135	72.4944	18.0634	-211.536	77.1093	-13.0969	-183.805	82.3715	-26.5161	-217.062	51.2864	9.50055	-197.073	56.2916	-20.3931	-162.338	71.9029	-25.6819	-200.459	33.7267	13.9793	-181.018	42.1171	-11.7384	-153.665	57.0531	-13.7976	-181.042	20.1703	32.4001	-164.99	26.1573	13.0359	-145.108	48.6207	0.274241	-216.156	23.2679	71.7543	-225.956	20.5697	101.698	-239.406	53.4964	84.3993	
39	0.325	-200.02	92.2428	111.435	-170	102.093	98.0279	-149.642	116.225	77.9593	-129.398	120.704	59.0868	-215.448	100.675	25.0454	-206.793	102.831	0.141641	-178.384	100.608	-19.3176	-222.906	78.3996	12.7863	-203.711	83.7622	-15.7691	-172.148	80.627	-23.7449	-217.28	59.8778	16.3713	-196.931	62.9318	-11.6901	-164.529	60.8532	-16.523	-207.206	34.7952	25.0282	-192.184	40.4828	5.51155	-166.73	51.5707	-5.24994	-233.235	46.5607	72.5061	-237.978	35.4415	102.016	-232.729	76.349	96.4016	
